<svg width="52" height="63" viewBox="0 0 52 63" fill="none" xmlns="http://www.w3.org/2000/svg">
<path d="M26 0L0 11.4545V28.6364C0 44.5295 11.0933 59.3918 26 63C40.9067 59.3918 52 44.5295 52 28.6364V11.4545L26 0ZM26 11.1682C27.7141 11.1682 29.3897 11.672 30.8149 12.616C32.2402 13.56 33.351 14.9017 34.007 16.4715C34.6629 18.0413 34.8345 19.7686 34.5001 21.4351C34.1657 23.1016 33.3403 24.6323 32.1283 25.8338C30.9162 27.0352 29.372 27.8534 27.6908 28.1849C26.0096 28.5164 24.267 28.3463 22.6834 27.6961C21.0998 27.0458 19.7462 25.9447 18.7939 24.5319C17.8416 23.1192 17.3333 21.4582 17.3333 19.7591C17.3333 17.4806 18.2464 15.2955 19.8717 13.6844C21.4971 12.0733 23.7015 11.1682 26 11.1682ZM26 33.7909C31.7778 33.7909 43.3333 36.9123 43.3333 42.6109C41.436 45.4463 38.8603 47.7721 35.8359 49.381C32.8115 50.99 29.4324 51.832 26 51.832C22.5676 51.832 19.1885 50.99 16.1641 49.381C13.1397 47.7721 10.564 45.4463 8.66667 42.6109C8.66667 36.9123 20.2222 33.7909 26 33.7909Z" fill="white"/>
</svg>
