<svg width="56" height="56" viewBox="0 0 56 56" fill="none" xmlns="http://www.w3.org/2000/svg">
<path d="M47.4083 20.6333L35.3667 8.59167L39.4042 4.55417C40.4903 3.46806 41.8248 2.925 43.4077 2.925C44.9887 2.925 46.3222 3.46806 47.4083 4.55417L51.4458 8.59167C52.5319 9.67778 53.075 11.0113 53.075 12.5923C53.075 14.1752 52.5319 15.5097 51.4458 16.5958L47.4083 20.6333ZM2.5 53.5V41.4583L15.25 28.7083L0.304169 13.6208L13.6917 0.233337L28.7083 15.3208L31.4 12.6292L43.4417 24.6L40.75 27.2917L55.6958 42.3792L42.3792 55.6958L27.2917 40.6792L14.5417 53.5H2.5ZM19.2875 24.6708L24.6708 19.2875L21.2708 15.8875L17.8708 19.2167L13.9042 15.25L17.2333 11.85L13.6208 8.30834L8.30834 13.6917L19.2875 24.6708ZM42.3083 47.6917L47.6917 42.3083L44.0792 38.7667L40.75 42.0958L36.7125 38.1292L40.1125 34.7292L36.6417 31.3292L31.2583 36.7125L42.3083 47.6917Z" fill="white"/>
</svg>
