<svg width="64" height="64" viewBox="0 0 64 64" fill="none" xmlns="http://www.w3.org/2000/svg">
<path d="M33.6667 2H7C5.67392 2 4.40215 2.52678 3.46447 3.46447C2.52678 4.40215 2 5.67392 2 7V43.6667C2 44.9927 2.52678 46.2645 3.46447 47.2022C4.40215 48.1399 5.67392 48.6667 7 48.6667H57C58.3261 48.6667 59.5978 48.1399 60.5355 47.2022C61.4732 46.2645 62 44.9927 62 43.6667V32M32 48.6667V62M15.3333 62H48.6667M53.6667 22V2M53.6667 2L45.3333 10.3333M53.6667 2L62 10.3333" stroke="white" stroke-width="6" stroke-linecap="round" stroke-linejoin="round"/>
</svg>
