<svg width="68" height="68" viewBox="0 0 68 68" fill="none" xmlns="http://www.w3.org/2000/svg">
<path fill-rule="evenodd" clip-rule="evenodd" d="M46.75 63.75C51.2587 63.75 55.5827 61.9589 58.7708 58.7708C61.9589 55.5827 63.75 51.2587 63.75 46.75C63.75 42.2413 61.9589 37.9173 58.7708 34.7292C55.5827 31.5411 51.2587 29.75 46.75 29.75C42.2413 29.75 37.9173 31.5411 34.7292 34.7292C31.5411 37.9173 29.75 42.2413 29.75 46.75C29.75 51.2587 31.5411 55.5827 34.7292 58.7708C37.9173 61.9589 42.2413 63.75 46.75 63.75ZM68 46.75C68 52.3859 65.7612 57.7909 61.776 61.776C57.7909 65.7612 52.3859 68 46.75 68C41.1141 68 35.7091 65.7612 31.724 61.776C27.7388 57.7909 25.5 52.3859 25.5 46.75C25.5 41.1141 27.7388 35.7091 31.724 31.724C35.7091 27.7388 41.1141 25.5 46.75 25.5C52.3859 25.5 57.7909 27.7388 61.776 31.724C65.7612 35.7091 68 41.1141 68 46.75Z" fill="white"/>
<path d="M40.1115 50.762C40.3112 53.295 42.313 55.267 45.9042 55.505V57.375H47.498V55.4923C51.2167 55.233 53.3885 53.244 53.3885 50.3625C53.3885 47.736 51.731 46.3845 48.756 45.6875L47.498 45.39V40.29C49.096 40.4727 50.1075 41.344 50.3497 42.551H53.1462C52.9465 40.1073 50.8512 38.199 47.498 37.9908V36.125H45.9042V38.0375C42.7295 38.3477 40.5705 40.256 40.5705 42.959C40.5705 45.3475 42.177 46.869 44.8502 47.4895L45.9042 47.7487V53.1548C44.2722 52.9083 43.1885 52.0073 42.9462 50.762H40.1115ZM45.8915 45.0075C44.3232 44.6463 43.4732 43.9025 43.4732 42.789C43.4732 41.5395 44.3912 40.6045 45.9042 40.3325V45.0075H45.8915ZM47.7275 48.178C49.6357 48.62 50.5112 49.334 50.5112 50.5962C50.5112 52.037 49.419 53.023 47.498 53.2057V48.127L47.7275 48.178Z" fill="white"/>
<path d="M4.25 0C3.12283 0 2.04183 0.447767 1.2448 1.2448C0.447767 2.04183 0 3.12283 0 4.25L0 38.25C0 39.3772 0.447767 40.4582 1.2448 41.2552C2.04183 42.0522 3.12283 42.5 4.25 42.5H21.6028C21.8493 41.038 22.219 39.6185 22.6993 38.25H12.75C12.75 35.9957 11.8545 33.8337 10.2604 32.2396C8.66635 30.6455 6.50434 29.75 4.25 29.75V12.75C6.50434 12.75 8.66635 11.8545 10.2604 10.2604C11.8545 8.66635 12.75 6.50434 12.75 4.25H55.25C55.25 6.50434 56.1455 8.66635 57.7396 10.2604C59.3337 11.8545 61.4957 12.75 63.75 12.75V27.744C65.365 29.189 66.7972 30.838 68 32.6485V4.25C68 3.12283 67.5522 2.04183 66.7552 1.2448C65.9582 0.447767 64.8772 0 63.75 0L4.25 0Z" fill="white"/>
<path d="M42.4915 21.6028L42.5 21.25C42.4991 19.7863 42.1203 18.3476 41.4002 17.0732C40.68 15.7989 39.643 14.7321 38.3896 13.9762C37.1361 13.2203 35.7087 12.8009 34.2456 12.7586C32.7825 12.7163 31.3332 13.0526 30.0382 13.7348C28.7432 14.4171 27.6463 15.4222 26.8537 16.6528C26.0612 17.8834 25.5999 19.2978 25.5145 20.7591C25.4291 22.2203 25.7225 23.6788 26.3662 24.9934C27.01 26.308 27.9823 27.434 29.189 28.2625C32.86 24.7659 37.4925 22.4467 42.4915 21.6028Z" fill="white"/>
</svg>
