<svg width="52" height="52" viewBox="0 0 52 52" fill="none" xmlns="http://www.w3.org/2000/svg">
<path d="M18.2083 28.8333C18.2083 31.9641 15.6725 34.5 12.5417 34.5C9.41083 34.5 6.875 31.9641 6.875 28.8333C6.875 25.7025 9.41083 23.1666 12.5417 23.1666C15.6725 23.1666 18.2083 25.7025 18.2083 28.8333Z" fill="white"/>
<path fill-rule="evenodd" clip-rule="evenodd" d="M12.5417 31.6666C13.2931 31.6666 14.0138 31.3681 14.5451 30.8368C15.0765 30.3054 15.375 29.5847 15.375 28.8333C15.375 28.0818 15.0765 27.3612 14.5451 26.8298C14.0138 26.2985 13.2931 26 12.5417 26C11.7902 26 11.0696 26.2985 10.5382 26.8298C10.0068 27.3612 9.70833 28.0818 9.70833 28.8333C9.70833 29.5847 10.0068 30.3054 10.5382 30.8368C11.0696 31.3681 11.7902 31.6666 12.5417 31.6666ZM12.5417 34.5C15.6725 34.5 18.2083 31.9641 18.2083 28.8333C18.2083 25.7025 15.6725 23.1666 12.5417 23.1666C9.41083 23.1666 6.875 25.7025 6.875 28.8333C6.875 31.9641 9.41083 34.5 12.5417 34.5Z" fill="white"/>
<path d="M0.5 43.7721C0.5 39.491 8.52258 37.3334 12.5417 37.3334C16.5607 37.3334 24.5833 39.491 24.5833 43.7721V51.5H0.5V43.7721Z" fill="white"/>
<path fill-rule="evenodd" clip-rule="evenodd" d="M3.8065 42.976C3.35883 43.418 3.33333 43.6715 3.33333 43.7735V48.6667H21.75V43.7721C21.75 43.673 21.7245 43.418 21.2768 42.976C20.8037 42.5099 20.0231 42.0098 18.9535 41.5522C16.8002 40.63 14.1708 40.1667 12.5417 40.1667C10.9125 40.1667 8.28175 40.63 6.12983 41.5522C5.06025 42.0098 4.27967 42.5099 3.8065 42.976ZM12.5417 37.3334C8.52258 37.3334 0.5 39.491 0.5 43.7721V51.5H24.5833V43.7721C24.5833 39.491 16.5607 37.3334 12.5417 37.3334Z" fill="white"/>
<path d="M45.125 28.8333C45.125 31.9641 42.5892 34.5 39.4583 34.5C36.3275 34.5 33.7917 31.9641 33.7917 28.8333C33.7917 25.7025 36.3275 23.1666 39.4583 23.1666C42.5892 23.1666 45.125 25.7025 45.125 28.8333Z" fill="white"/>
<path fill-rule="evenodd" clip-rule="evenodd" d="M39.4583 31.6666C40.2098 31.6666 40.9304 31.3681 41.4618 30.8368C41.9931 30.3054 42.2917 29.5847 42.2917 28.8333C42.2917 28.0818 41.9931 27.3612 41.4618 26.8298C40.9304 26.2985 40.2098 26 39.4583 26C38.7069 26 37.9862 26.2985 37.4549 26.8298C36.9235 27.3612 36.625 28.0818 36.625 28.8333C36.625 29.5847 36.9235 30.3054 37.4549 30.8368C37.9862 31.3681 38.7069 31.6666 39.4583 31.6666ZM39.4583 34.5C42.5892 34.5 45.125 31.9641 45.125 28.8333C45.125 25.7025 42.5892 23.1666 39.4583 23.1666C36.3275 23.1666 33.7917 25.7025 33.7917 28.8333C33.7917 31.9641 36.3275 34.5 39.4583 34.5Z" fill="white"/>
<path d="M31.6667 26C31.6667 29.1309 29.1308 31.6667 26 31.6667C22.8692 31.6667 20.3333 29.1309 20.3333 26C20.3333 22.8692 22.8692 20.3334 26 20.3334C29.1308 20.3334 31.6667 22.8692 31.6667 26Z" fill="white"/>
<path fill-rule="evenodd" clip-rule="evenodd" d="M26 28.8334C26.7515 28.8334 27.4721 28.5349 28.0035 28.0035C28.5348 27.4722 28.8333 26.7515 28.8333 26C28.8333 25.2486 28.5348 24.5279 28.0035 23.9966C27.4721 23.4652 26.7515 23.1667 26 23.1667C25.2486 23.1667 24.5279 23.4652 23.9965 23.9966C23.4652 24.5279 23.1667 25.2486 23.1667 26C23.1667 26.7515 23.4652 27.4722 23.9965 28.0035C24.5279 28.5349 25.2486 28.8334 26 28.8334ZM26 31.6667C29.1308 31.6667 31.6667 29.1309 31.6667 26C31.6667 22.8692 29.1308 20.3334 26 20.3334C22.8692 20.3334 20.3333 22.8692 20.3333 26C20.3333 29.1309 22.8692 31.6667 26 31.6667Z" fill="white"/>
<path d="M24.5833 10.1801C24.5833 8.36421 23.862 6.62271 22.578 5.3387C21.294 4.05469 19.5525 3.33333 17.7366 3.33333H13.2472C11.3895 3.33034 9.60514 4.05751 8.27871 5.35803C6.95228 6.65856 6.19008 8.42827 6.15644 10.2856C6.12279 12.1429 6.82041 13.9391 8.09888 15.2868C9.37734 16.6345 11.1342 17.4258 12.9908 17.4901L13.25 17.5V20.3333C13.25 20.3333 24.5833 18.6801 24.5833 10.1801ZM28.8333 7.91767C28.8333 5.95038 29.6148 4.06367 31.0059 2.67258C32.397 1.2815 34.2837 0.5 36.251 0.5H44.4167C46.2953 0.5 48.097 1.24628 49.4253 2.57466C50.7537 3.90304 51.5 5.70472 51.5 7.58333C51.5 9.46195 50.7537 11.2636 49.4253 12.592C48.097 13.9204 46.2953 14.6667 44.4167 14.6667H41.5833V18.9167C41.5833 18.9167 28.8333 17.126 28.8333 7.91767ZM27.4167 43.7721C27.4167 39.4909 35.4393 37.3333 39.4583 37.3333C43.4774 37.3333 51.5 39.4909 51.5 43.7721V51.5H27.4167V43.7721Z" fill="white"/>
<path fill-rule="evenodd" clip-rule="evenodd" d="M30.7232 42.9759C30.2755 43.4179 30.25 43.6715 30.25 43.7735V48.6667H48.6667V43.7721C48.6667 43.6729 48.6412 43.4179 48.1935 42.9759C47.7203 42.5098 46.9398 42.0098 45.8702 41.5522C43.7168 40.6299 41.0875 40.1667 39.4583 40.1667C37.8292 40.1667 35.1984 40.6299 33.0465 41.5522C31.9769 42.0098 31.1963 42.5098 30.7232 42.9759ZM39.4583 37.3333C35.4393 37.3333 27.4167 39.4909 27.4167 43.7721V51.5H51.5V43.7721C51.5 39.4909 43.4774 37.3333 39.4583 37.3333ZM26 40.9387C26 38.563 23.3834 36.8403 20.3263 35.7778C22.1004 34.9395 24.0378 34.5032 26 34.5C27.9623 34.5032 29.8996 34.9395 31.6738 35.7778C28.618 36.8403 26 38.563 26 40.9387Z" fill="white"/>
<path fill-rule="evenodd" clip-rule="evenodd" d="M26 40.9388C26 39.6737 26.7423 38.5928 27.8983 37.6988C27.9646 37.6482 28.0317 37.5986 28.0995 37.5501C29.0855 36.8333 30.3378 36.2425 31.6738 35.7793C30.3469 35.1536 28.9266 34.7492 27.4691 34.5822C26.4932 34.4726 25.5082 34.4726 24.5323 34.5822C23.0745 34.7486 21.6537 35.1525 20.3263 35.7778C21.6622 36.2425 22.9145 36.8333 23.9019 37.5487C23.9699 37.5983 24.0351 37.6478 24.1003 37.6988C25.2577 38.5913 26 39.6737 26 40.9388Z" fill="white"/>
</svg>
