<svg width="73" height="68" viewBox="0 0 73 68" fill="none" xmlns="http://www.w3.org/2000/svg">
<path d="M42.6367 20.8583C43.3945 17.8445 43.7724 15.2302 43.5043 11.3499C47.7696 7.66599 49.8964 4.95782 53.2075 0C51.1358 10.5885 47.0811 19.4772 42.6367 20.8583Z" fill="white"/>
<path d="M1.64589 44.4257C-1.54807 33.6109 -0.45544 23.7615 8.14418 16.4671C12.1104 13.1029 18.7573 14.1163 22.752 17.1223C28.1171 21.1593 32.4198 25.0193 40.9897 23.6028C49.5597 22.1863 51.2064 16.0244 52.9948 14.3423C54.7831 12.6602 56.8664 12.3122 60.4846 13.5278C67.2308 15.7942 72.348 24.6121 72.6667 32.7394C73.0217 41.791 68.966 52.5707 63.9374 57.7233C58.9087 62.8758 53.0054 65.9792 43.3978 67.5858C33.2941 69.2753 20.5564 65.3688 17.4932 63.5487C9.93253 59.0562 4.22394 53.155 1.64589 44.4257Z" fill="white"/>
<path d="M32.8853 16.3253C33.3457 13.3152 34.3518 7.48981 33.7529 3.77143C33.154 0.0530617 37.6712 2.01857 38.3035 2.99236C38.9357 3.96614 39.4419 4.35578 40.1272 11.7571C40.8126 19.1583 39.095 21.8143 36.4797 21.655C33.8643 21.4957 32.4249 19.3355 32.8853 16.3253Z" fill="white" stroke="white" stroke-width="0.70826"/>
<path d="M30.5781 11.4385C28.2231 9.04809 16.197 8.032 12.1279 9.13663C19.2257 10.3581 23.5206 13.1704 29.8344 19.1939C29.777 15.695 29.6928 13.9174 30.5781 11.4385Z" fill="white"/>
</svg>
